HIERARCHY
ROOT Hips
{
 OFFSET 0.000000 0.000000 0.000000
 CHANNELS 6 Xposition Yposition Zposition Yrotation Xrotation Zrotation
 JOINT Chest
 {
  OFFSET 0.000000 9.585900 0.002600
  CHANNELS 3 Yrotation Xrotation Zrotation
  JOINT Chest2
  {
   OFFSET 0.000000 9.601200 -0.005300
   CHANNELS 3 Yrotation Xrotation Zrotation
   JOINT Chest3
   {
    OFFSET 0.000000 9.561800 0.000000
    CHANNELS 3 Yrotation Xrotation Zrotation
    JOINT Chest4
    {
     OFFSET 0.000000 9.552100 0.000000
     CHANNELS 3 Yrotation Xrotation Zrotation
     JOINT Neck
     {
      OFFSET 0.000000 14.453000 0.000000
      CHANNELS 3 Yrotation Xrotation Zrotation
      JOINT Head
      {
       OFFSET 0.000000 8.936500 -0.011300
       CHANNELS 3 Yrotation Xrotation Zrotation
       End Site
       {
        OFFSET 0.000000 17.073600 -0.006000
       }
      }
     }
     JOINT RightCollar
     {
      OFFSET -2.921100 9.558500 0.000000
      CHANNELS 3 Yrotation Xrotation Zrotation
      JOINT RightShoulder
      {
       OFFSET -13.519700 0.000000 0.000000
       CHANNELS 3 Yrotation Xrotation Zrotation
       JOINT RightElbow
       {
        OFFSET 0.000000 -29.696600 0.000000
        CHANNELS 3 Yrotation Xrotation Zrotation
        JOINT RightWrist
        {
         OFFSET 0.000000 -24.004700 0.000000
         CHANNELS 3 Yrotation Xrotation Zrotation
         End Site
         {
          OFFSET 0.000000 -17.728500 0.000000
         }
        }
       }
      }
     }
     JOINT LeftCollar
     {
      OFFSET 2.921100 9.558500 0.000000
      CHANNELS 3 Yrotation Xrotation Zrotation
      JOINT LeftShoulder
      {
       OFFSET 13.519700 0.000000 0.000000
       CHANNELS 3 Yrotation Xrotation Zrotation
       JOINT LeftElbow
       {
        OFFSET 0.000000 -29.696600 0.000000
        CHANNELS 3 Yrotation Xrotation Zrotation
        JOINT LeftWrist
        {
         OFFSET 0.000000 -24.004700 0.000000
         CHANNELS 3 Yrotation Xrotation Zrotation
         End Site
         {
          OFFSET 0.000000 -17.728500 0.000000
         }
        }
       }
      }
     }
    }
   }
  }
 }
 JOINT RightHip
 {
  OFFSET -7.771700 -0.012900 -0.001300
  CHANNELS 3 Yrotation Xrotation Zrotation
  JOINT RightKnee
  {
   OFFSET 0.000000 -40.869800 0.001200
   CHANNELS 3 Yrotation Xrotation Zrotation
   JOINT RightAnkle
   {
    OFFSET 0.000000 -39.717900 0.002100
    CHANNELS 3 Yrotation Xrotation Zrotation
    JOINT RightToe
    {
     OFFSET 0.000000 -4.965400 11.033500
     CHANNELS 3 Yrotation Xrotation Zrotation
     End Site
     {
      OFFSET 0.000000 -1.423100 5.872300
     }
    }
   }
  }
 }
 JOINT LeftHip
 {
  OFFSET 7.771700 -0.012900 -0.001300
  CHANNELS 3 Yrotation Xrotation Zrotation
  JOINT LeftKnee
  {
   OFFSET 0.000000 -40.869800 0.001200
   CHANNELS 3 Yrotation Xrotation Zrotation
   JOINT LeftAnkle
   {
    OFFSET 0.000000 -39.717900 0.002100
    CHANNELS 3 Yrotation Xrotation Zrotation
    JOINT LeftToe
    {
     OFFSET 0.000000 -4.965400 11.033500
     CHANNELS 3 Yrotation Xrotation Zrotation
     End Site
     {
      OFFSET 0.000000 -1.423100 5.872300
     }
    }
   }
  }
 }
}
MOTION
Frames: 12
Frame Time: 0.008333
-208.588817 58.054668 129.159064 178.141459 -24.755060 -0.357092 0.674163 20.150362 1.647374 0.078057 2.452392 0.229894 0.067483 4.131520 0.380685 0.502217 17.279687 1.679340 0.890980 8.153822 -1.789037 2.601316 -20.614574 -3.980868 5.155962 -4.855828 -3.679277 36.985786 -44.569822 -22.968615 33.747307 -8.305856 5.695921 12.679615 4.738737 -50.473912 -10.055474 -8.264016 -1.982134 -14.787074 -42.117888 -3.302482 -47.844697 -1.200380 16.799798 -16.688281 -1.487160 36.846181 9.797265 -50.630701 -4.423318 -6.044300 71.387669 -12.977166 -17.457460 25.261005 -4.651876 -1.787973 -15.620603 15.774877 -3.332053 -47.766938 -2.324155 29.132999 70.058276 32.894509 -13.909637 0.471500 -3.470710 -0.153579 0.369872 -0.076001
-208.603620 58.052503 129.160662 178.126940 -24.823142 -0.320309 0.711175 20.159448 1.625193 0.079424 2.454042 0.231948 0.043646 4.175293 0.380867 0.528584 17.270784 1.674897 0.915717 8.163730 -1.774668 2.537955 -20.504702 -3.861516 5.188967 -4.917781 -3.651614 36.813631 -44.447351 -22.958488 33.763218 -8.420769 5.727436 12.714329 4.532880 -50.642532 -10.115160 -8.237734 -2.026367 -14.421881 -41.991232 -3.246240 -47.501373 -1.737896 16.731715 -16.638851 -1.684039 36.871922 9.771357 -50.578075 -4.432274 -6.000527 71.397742 -12.952999 -17.445036 25.281684 -4.679517 -1.789643 -15.635203 15.786398 -3.144836 -47.689031 -2.513011 29.071036 70.034854 32.939537 -13.895539 0.475327 -3.466529 -0.156075 0.371106 -0.088005
-208.617572 58.052636 129.156599 178.096988 -24.928303 -0.272430 0.759307 20.205484 1.602598 0.076801 2.452227 0.230239 0.057616 4.185177 0.381166 0.558036 17.279366 1.674101 0.891795 8.193759 -1.743716 2.492656 -20.452477 -3.810977 5.179927 -4.954649 -3.620067 36.651586 -44.323913 -22.955834 33.784559 -8.589626 5.720773 12.729217 4.329137 -50.781627 -10.203561 -8.202056 -2.072586 -14.052852 -41.866622 -3.183987 -47.147582 -2.243441 16.646485 -16.576345 -1.927088 36.916542 9.689053 -50.501548 -4.397511 -5.932262 71.418382 -12.934809 -17.421659 25.326732 -4.708653 -1.768003 -15.685089 15.783988 -2.933865 -47.576384 -2.702455 29.073161 70.012465 33.039241 -13.914830 0.487130 -3.463731 -0.153489 0.355220 -0.087940
-208.622947 58.051488 129.154540 178.076292 -25.021464 -0.269405 0.826323 20.166446 1.627731 0.056592 2.517095 0.228914 0.090099 4.144535 0.377244 0.604141 17.287271 1.669737 0.836683 8.275998 -1.690570 2.453722 -20.424262 -3.794745 5.145027 -4.944319 -3.566415 36.480620 -44.182358 -22.954556 33.834522 -8.819761 5.673649 12.705605 4.105125 -50.893752 -10.305796 -8.123460 -2.089950 -13.689160 -41.752561 -3.155143 -46.773567 -2.706909 16.559219 -16.513231 -2.211997 36.957055 9.650701 -50.420849 -4.353778 -5.950543 71.418761 -12.948282 -17.434037 25.334287 -4.745384 -1.778430 -15.679394 15.796885 -2.846972 -47.480177 -2.764169 29.121533 69.998275 33.132759 -13.934583 0.488703 -3.458696 -0.150350 0.349460 -0.087342
-208.625238 58.048843 129.154370 178.064543 -25.102081 -0.277378 0.863093 20.174564 1.651156 0.059876 2.516965 0.227789 0.103543 4.128572 0.375314 0.632844 17.287679 1.664050 0.795104 8.353370 -1.653145 2.429504 -20.344728 -3.722679 5.149807 -4.948787 -3.526708 36.296409 -44.022117 -22.950693 33.871360 -9.041907 5.646078 12.699752 3.799507 -51.049475 -10.364294 -8.071083 -2.114785 -13.360901 -41.642988 -3.133750 -46.387642 -3.117505 16.480805 -16.449628 -2.520960 36.973955 9.599946 -50.354241 -4.312213 -5.958146 71.420878 -12.926510 -17.458465 25.320526 -4.819897 -1.772910 -15.662657 15.819152 -2.685133 -47.397600 -2.886195 29.133815 69.983667 33.253253 -13.939585 0.488413 -3.450654 -0.150995 0.350586 -0.086768
-208.628613 58.044683 129.155650 178.054605 -25.172302 -0.268432 0.881411 20.207556 1.651240 0.074694 2.476531 0.226806 0.100008 4.148484 0.374426 0.659341 17.261812 1.657261 0.768485 8.425521 -1.621822 2.403270 -20.254567 -3.642560 5.171446 -4.962385 -3.494536 36.089160 -43.847526 -22.934269 33.913381 -9.275341 5.631013 12.709206 3.430682 -51.237281 -10.402715 -8.033340 -2.142071 -13.082281 -41.535245 -3.110293 -46.003348 -3.472471 16.414812 -16.379342 -2.835629 36.961495 9.539712 -50.301190 -4.266529 -5.911182 71.432877 -12.904344 -17.448203 25.323768 -4.835559 -1.765948 -15.651152 15.820596 -2.520383 -47.330606 -3.019135 29.133485 69.976229 33.350877 -13.944726 0.496882 -3.445130 -0.162790 0.340240 -0.089550
-208.632611 58.039163 129.157806 178.046975 -25.236455 -0.246140 0.892851 20.233922 1.636301 0.088531 2.431793 0.225946 0.082109 4.211376 0.375123 0.696607 17.188183 1.649158 0.783155 8.481915 -1.576998 2.332458 -20.043225 -3.499364 5.194338 -4.972014 -3.468697 35.854192 -43.662518 -22.900361 33.969019 -9.534590 5.616074 12.727302 3.025094 -51.430822 -10.438280 -7.993727 -2.170324 -12.862401 -41.425704 -3.076166 -45.624167 -3.785343 16.363087 -16.298220 -3.140854 36.918092 9.444774 -50.262898 -4.215389 -5.806539 71.453317 -12.849278 -17.450470 25.341044 -4.847181 -1.765582 -15.665942 15.811165 -2.394577 -47.272705 -3.129894 29.120294 69.976903 33.402062 -13.948170 0.507479 -3.444148 -0.158193 0.331891 -0.085401
-208.632442 58.032826 129.159632 178.039621 -25.304205 -0.238934 0.923487 20.220219 1.641439 0.074782 2.470141 0.226293 0.117449 4.095926 0.372011 0.686233 17.244729 1.651438 0.785152 8.551592 -1.536251 2.287239 -19.872200 -3.398584 5.224759 -4.978453 -3.451768 35.599848 -43.467855 -22.856107 34.036017 -9.818933 5.600270 12.750815 2.610128 -51.617123 -10.468394 -7.953175 -2.199702 -12.698919 -41.310108 -3.026142 -45.256448 -4.072253 16.326875 -16.198105 -3.429334 36.829140 9.394290 -50.212727 -4.181386 -5.781495 71.460675 -12.826162 -17.460034 25.342554 -4.884767 -1.755698 -15.665247 15.814348 -2.339005 -47.208937 -3.174342 29.168884 69.968306 33.474172 -13.963126 0.504227 -3.440964 -0.149450 0.337017 -0.082880
-208.632461 58.025366 129.161303 178.013381 -25.374069 -0.213527 0.958404 20.206758 1.635025 0.074981 2.440730 0.228844 0.119979 4.088503 0.370118 0.688120 17.256202 1.648243 0.781936 8.631841 -1.500041 2.259889 -19.724689 -3.322553 5.266714 -4.982355 -3.440968 35.337330 -43.262932 -22.812716 34.117162 -10.126916 5.581879 12.781780 2.196793 -51.783324 -10.490692 -7.877180 -2.220927 -12.575924 -41.220996 -2.958054 -44.922149 -4.349686 16.304338 -16.070027 -3.695542 36.675487 9.376314 -50.160763 -4.162753 -5.752150 71.474236 -12.805349 -17.443912 25.331756 -4.908706 -1.773124 -15.643409 15.825129 -2.262557 -47.145313 -3.222835 29.235774 69.976705 33.535069 -13.938697 0.484379 -3.396310 -0.183648 0.353592 -0.095184
-208.630901 58.017530 129.161032 178.002148 -25.458797 -0.195354 0.977182 20.135152 1.637368 0.070320 2.478470 0.224971 0.117632 4.103733 0.367591 0.691317 17.242501 1.643379 0.780733 8.717260 -1.465852 2.237408 -19.567363 -3.251319 5.316851 -4.984714 -3.429743 35.074964 -43.044109 -22.776456 34.218168 -10.460174 5.558326 12.820323 1.791254 -51.916743 -10.509438 -7.841817 -2.268491 -12.484499 -41.069841 -2.847404 -44.653546 -4.639726 16.294305 -15.912838 -3.924604 36.452383 9.345396 -50.093522 -4.141680 -5.701885 71.491802 -12.763257 -17.422948 25.325344 -4.933417 -1.785175 -15.633413 15.838920 -2.188067 -47.074674 -3.273455 29.226477 70.002729 33.534753 -13.916814 0.491660 -3.365347 -0.197854 0.343791 -0.102476
-208.627495 58.007987 129.161394 178.007745 -25.542072 -0.188127 0.973470 20.149636 1.635335 0.072123 2.447428 0.224670 0.117851 4.094962 0.366080 0.692162 17.226713 1.638850 0.778552 8.816104 -1.440282 2.217697 -19.411126 -3.179974 5.369794 -4.985489 -3.415066 34.819761 -42.810817 -22.749034 34.345980 -10.817667 5.523675 12.853345 1.414745 -52.009994 -10.525833 -7.794644 -2.321833 -12.398290 -40.908035 -2.711081 -44.489171 -4.958611 16.292965 -15.725330 -4.109715 36.171496 9.300959 -50.030947 -4.122108 -5.665379 71.513900 -12.716375 -17.431722 25.309612 -4.981459 -1.719877 -15.631574 15.835208 -2.159933 -47.013490 -3.291110 29.206671 70.039606 33.499392 -13.879397 0.512920 -3.338905 -0.226033 0.323928 -0.100267
-208.619434 57.993935 129.168206 178.031735 -25.586568 -0.211440 0.961524 20.073418 1.658478 0.069499 2.464990 0.222618 0.117466 4.085482 0.364594 0.690472 17.209607 1.634263 0.774479 8.936438 -1.428295 2.201023 -19.269748 -3.105595 5.424107 -4.984755 -3.399767 34.572218 -42.566882 -22.728923 34.502485 -11.196385 5.472558 12.866829 1.078070 -52.062144 -10.537543 -7.725140 -2.367905 -12.289509 -40.750514 -2.571333 -44.452569 -5.309658 16.296301 -15.509586 -4.265721 35.856117 9.223311 -50.012859 -4.069738 -5.648893 71.535546 -12.703194 -17.426108 25.299749 -4.994168 -1.723110 -15.622671 15.831216 -2.238997 -47.021955 -3.198958 29.201157 70.115765 33.423245 -13.877476 0.563245 -3.308294 -0.226268 0.277216 -0.095341
